HIERARCHY
ROOT Hips
{
	OFFSET 0.000000 0.000000 0.000000
	CHANNELS 6 Xposition Yposition Zposition Zrotation Yrotation Xrotation 
	JOINT LHipJoint
	{
		OFFSET 0.000000 0.000000 0.000000
		CHANNELS 3 Zrotation Yrotation Xrotation
		JOINT LeftUpLeg
		{
			OFFSET 1.363060 -1.794630 0.839290
			CHANNELS 3 Zrotation Yrotation Xrotation
			JOINT LeftLeg
			{
				OFFSET 2.448110 -6.726130 0.000000
				CHANNELS 3 Zrotation Yrotation Xrotation
				JOINT LeftFoot
				{
					OFFSET 2.562200 -7.039590 0.000000
					CHANNELS 3 Zrotation Yrotation Xrotation
					JOINT LeftToeBase
					{
						OFFSET 0.157640 -0.433110 2.322550
						CHANNELS 3 Zrotation Yrotation Xrotation
						End Site
						{
							OFFSET 0.000000 0.000000 0.000000
						}
					}
				}
			}
		}
	}
	JOINT RHipJoint
	{
		OFFSET 0.000000 0.000000 0.000000
		CHANNELS 3 Zrotation Yrotation Xrotation
		JOINT RightUpLeg
		{
			OFFSET -1.305520 -1.794630 0.839290
			CHANNELS 3 Zrotation Yrotation Xrotation
			JOINT RightLeg
			{
				OFFSET -2.542530 -6.985550 0.000000
				CHANNELS 3 Zrotation Yrotation Xrotation
				JOINT RightFoot
				{
					OFFSET -2.568260 -7.056230 0.000000
					CHANNELS 3 Zrotation Yrotation Xrotation
					JOINT RightToeBase
					{
						OFFSET -0.164730 -0.452590 2.363150
						CHANNELS 3 Zrotation Yrotation Xrotation
						End Site
						{
							OFFSET 0.000000 0.000000 0.000000
						}
					}
				}
			}
		}
	}
	JOINT LowerBack
	{
		OFFSET 0.000000 0.000000 0.000000
		CHANNELS 3 Zrotation Yrotation Xrotation
		JOINT Spine
		{
			OFFSET 0.028270 2.035590 -0.193380
			CHANNELS 3 Zrotation Yrotation Xrotation
			JOINT Spine1
			{
				OFFSET 0.056720 2.048850 -0.042750
				CHANNELS 3 Zrotation Yrotation Xrotation
				JOINT Neck
				{
					OFFSET 0.000000 0.000000 0.000000
					CHANNELS 3 Zrotation Yrotation Xrotation
					JOINT Neck1
					{
						OFFSET -0.054170 1.746240 0.172020
						CHANNELS 3 Zrotation Yrotation Xrotation
						JOINT Head
						{
							OFFSET 0.104070 1.761360 -0.123970
							CHANNELS 3 Zrotation Yrotation Xrotation
							End Site
							{
								OFFSET 0.000000 0.000000 0.000000
							}
						}
					}
				}
				JOINT LeftShoulder
				{
					OFFSET 0.000000 0.000000 0.000000
					CHANNELS 3 Zrotation Yrotation Xrotation
					JOINT LeftArm
					{
						OFFSET 3.362410 1.200890 -0.311210
						CHANNELS 3 Zrotation Yrotation Xrotation
						JOINT LeftForeArm
						{
							OFFSET 4.983000 -0.000000 -0.000000
							CHANNELS 3 Zrotation Yrotation Xrotation
							JOINT LeftHand
							{
								OFFSET 3.483560 -0.000000 -0.000000
								CHANNELS 3 Zrotation Yrotation Xrotation
								JOINT LeftFingerBase
								{
									OFFSET 0.000000 0.000000 0.000000
									CHANNELS 3 Zrotation Yrotation Xrotation
									JOINT LeftHandIndex1
									{
										OFFSET 0.715260 -0.000000 -0.000000
										CHANNELS 3 Zrotation Yrotation Xrotation
										End Site
										{
											OFFSET 0.000000 0.000000 0.000000
										}
									}
								}
								JOINT LThumb
								{
									OFFSET 0.000000 0.000000 0.000000
									CHANNELS 3 Zrotation Yrotation Xrotation
									End Site
									{
										OFFSET 0.000000 0.000000 0.000000
									}
								}
							}
						}
					}
				}
				JOINT RightShoulder
				{
					OFFSET 0.000000 0.000000 0.000000
					CHANNELS 3 Zrotation Yrotation Xrotation
					JOINT RightArm
					{
						OFFSET -3.136600 1.374050 -0.404650
						CHANNELS 3 Zrotation Yrotation Xrotation
						JOINT RightForeArm
						{
							OFFSET -5.241900 -0.000000 -0.000000
							CHANNELS 3 Zrotation Yrotation Xrotation
							JOINT RightHand
							{
								OFFSET -3.444170 -0.000000 -0.000000
								CHANNELS 3 Zrotation Yrotation Xrotation
								JOINT RightFingerBase
								{
									OFFSET 0.000000 0.000000 0.000000
									CHANNELS 3 Zrotation Yrotation Xrotation
									JOINT RightHandIndex1
									{
										OFFSET -0.622530 -0.000000 -0.000000
										CHANNELS 3 Zrotation Yrotation Xrotation
										End Site
										{
											OFFSET 0.000000 0.000000 0.000000
										}
									}
								}
								JOINT RThumb
								{
									OFFSET 0.000000 0.000000 0.000000
									CHANNELS 3 Zrotation Yrotation Xrotation
									End Site
									{
										OFFSET 0.000000 0.000000 0.000000
									}
								}
							}
						}
					}
				}
			}
		}
	}
}
MOTION
Frames: 10
Frame Time: 0.008333
-6.201492 20.585308 0.268945 73.813434 86.584280 117.324724 40.668522 29.033892 10.533728 -79.679720 -59.545789 -26.984253 19.855761 6.142337 53.645940 8.851097 -1.296367 -65.632969 1.493500 7.720100 21.867100 -52.909739 -32.438191 15.614227 93.414343 56.741911 -15.895499 -22.994234 -4.482601 50.224954 -10.618263 -3.659797 -62.522658 -0.333100 3.709000 -10.259300 9.206399 7.813777 2.494862 -39.952946 -26.260464 -84.991871 16.312519 -11.101787 44.641648 -3.847523 3.929037 25.108268 35.823944 14.124339 -45.045918 3.045300 -0.132600 0.079600 21.065899 -18.819840 12.130779 -123.653422 -0.049366 -2.509999 54.067048 -41.819940 -6.616291 7.340585 13.990457 35.027878 2.371755 37.832242 2.231900 -7.125000 0.000000 0.000000 -22.984500 50.898000 -3.498700 -3.412755 10.097718 13.013288 120.581514 -3.008095 3.416361 -52.740379 47.894449 -1.367056 -1.713076 1.880255 26.454416 -17.380500 11.304295 -2.792100 7.125000 0.000000 0.000000 8.516600 -19.197600 5.301100 
-6.201793 20.583876 0.265855 84.209022 85.956142 127.524104 40.113891 28.330506 10.219089 -79.452935 -59.817182 -27.210120 19.796191 6.238338 53.788413 8.906226 -1.151552 -65.508980 1.365000 7.394500 20.889600 -53.345746 -32.701023 16.284012 92.943561 57.078577 -16.129485 -22.952946 -4.629960 50.608854 -10.652050 -4.173405 -62.529287 -0.318600 3.628500 -10.033800 11.319345 8.719824 1.726378 -45.974699 -28.884440 -79.497335 18.708049 -11.946172 43.157911 -2.429556 3.410719 24.081141 34.556581 13.669136 -45.235901 2.911800 -0.162200 0.168300 22.005397 -18.353089 11.731208 -123.686559 -0.386274 -2.486911 54.061285 -41.971644 -6.569244 7.234916 13.916137 34.844601 2.406122 37.525581 2.215300 -7.125000 0.000000 0.000000 -22.876000 50.716600 -3.374900 -2.961551 9.741572 12.542123 120.403932 -2.876437 3.692473 -52.530139 48.208279 -1.361117 -1.695045 1.825140 26.363371 -17.268598 11.194082 -2.759100 7.125000 0.000000 0.000000 8.567600 -19.277400 5.318100 
-6.204507 20.583650 0.260729 83.317583 85.952207 127.043961 39.756116 28.396319 10.150167 -78.723671 -60.263423 -28.025083 19.767386 6.339272 53.986585 8.975962 -0.918628 -65.428186 1.237000 7.052700 19.871600 -52.971638 -32.692955 16.405044 92.079292 57.906473 -17.069316 -22.852192 -4.773309 50.899288 -10.595333 -4.205596 -62.521635 -0.309100 3.574500 -9.882700 11.306267 8.803910 1.594283 -46.091958 -28.869077 -79.573502 18.603696 -11.795434 43.004431 -2.929716 3.568233 23.504096 35.933087 13.816910 -43.971008 2.996900 -0.170300 0.200100 22.172199 -18.359568 11.830101 -123.608683 -0.380101 -2.628281 53.970734 -42.200223 -6.604883 7.273133 13.987237 34.825286 2.348621 37.741306 2.213800 -7.125000 0.000000 0.000000 -22.985500 50.840000 -3.464900 -2.877276 9.639705 12.610587 120.398029 -2.970307 3.853484 -52.539699 48.209929 -1.371889 -1.617593 1.645914 26.080575 -16.859445 10.870199 -2.654400 7.125000 0.000000 0.000000 8.753700 -19.510600 5.390300 
-6.206693 20.582670 0.253945 82.287606 84.446873 125.260468 38.514668 27.356208 10.357452 -78.683454 -60.562543 -28.058887 19.626246 6.425207 54.062590 8.911753 -0.808622 -65.366560 1.126100 6.740300 18.948200 -54.716881 -32.793414 17.827290 91.895978 58.142611 -17.082258 -22.782389 -4.772467 51.091328 -10.542653 -4.228985 -62.438277 -0.327200 3.676700 -10.168800 14.073782 12.618026 -2.197965 -57.800752 -31.445233 -64.804832 22.524870 -12.414673 41.700167 -2.520424 2.973039 25.820089 36.992288 17.177159 -54.307108 3.209400 -0.146900 -0.064400 22.995850 -15.591883 9.728756 -123.826605 -1.687433 -4.214760 54.401625 -42.174158 -6.444462 7.437069 13.411461 36.225111 2.780393 37.126220 2.289500 -7.125000 0.000000 0.000000 -22.628500 50.670800 -3.308600 -1.068383 10.519565 10.729843 119.323089 -1.337731 4.093708 -52.835463 47.902880 -1.216963 -1.381286 1.753297 26.250380 -16.314401 11.022098 -2.565100 7.125000 0.000000 0.000000 9.021100 -19.607300 5.539300 
-6.202396 20.580258 0.248895 87.439558 84.952383 130.241400 39.002767 27.405734 10.117798 -78.862776 -60.297033 -27.771644 19.605403 6.430618 54.294974 8.863941 -0.921034 -65.379452 1.071200 6.579300 18.474900 -54.347551 -32.825290 17.421631 92.471123 57.466958 -16.414236 -22.875398 -4.723487 50.980567 -10.667292 -4.542542 -62.381934 -0.356900 3.838200 -10.622000 13.537513 11.486881 -0.847170 -54.518333 -30.995549 -68.717111 21.359488 -12.389541 42.136119 -2.944610 3.225736 25.864683 37.259961 16.852144 -52.802250 3.226700 -0.175700 -0.081500 22.676447 -16.392178 10.101484 -123.991753 -1.508838 -4.933760 54.196164 -42.230330 -6.391909 7.498566 13.168539 36.768042 3.094340 36.646488 2.340700 -7.125000 0.000000 0.000000 -22.253300 50.402700 -3.096800 -1.368635 10.309848 11.120499 119.642088 -1.851740 3.667459 -52.881284 47.726576 -1.185602 -1.315805 1.796684 26.537199 -16.168112 11.165153 -2.564100 7.125000 0.000000 0.000000 9.097000 -19.533300 5.602400 
-6.203602 20.578298 0.238719 76.868622 86.173249 120.703724 39.277273 28.550391 10.252064 -77.750791 -60.665225 -28.954859 19.679253 6.479775 54.603347 8.966208 -0.496521 -65.420084 1.047200 6.507600 18.264400 -52.868033 -32.429068 16.410490 91.830425 58.245719 -17.511481 -22.789091 -4.760031 50.951125 -10.613853 -4.116271 -62.389976 -0.372300 3.919200 -10.849500 10.809042 9.675292 0.749034 -45.148789 -28.374827 -79.129371 18.049935 -11.631221 44.202752 -3.678052 3.695456 25.997375 36.327915 15.584689 -49.566754 3.140200 -0.190400 0.002800 21.572061 -17.764451 11.181531 -123.965677 -0.815617 -4.905050 54.179912 -42.393880 -6.520712 7.360451 13.496872 35.962475 2.799298 36.984506 2.300000 -7.125000 0.000000 0.000000 -22.468600 50.519100 -3.196200 -2.460672 10.429570 12.163564 120.192857 -2.601272 3.331095 -53.034831 47.420142 -1.209221 -1.403633 1.896028 26.750407 -16.502183 11.372898 -2.646800 7.125000 0.000000 0.000000 8.946800 -19.344900 5.545600 
-6.202321 20.576338 0.229749 71.394985 86.903554 115.593872 39.639016 29.069201 10.227118 -77.346512 -60.756495 -29.307331 19.695391 6.530921 54.868570 9.009314 -0.302698 -65.544671 1.041600 6.490800 18.215300 -52.087907 -32.236734 15.784693 91.827517 58.286509 -17.662481 -22.805975 -4.753819 50.816891 -10.643308 -4.017713 -62.362328 -0.367600 3.894600 -10.780400 9.363837 8.270750 2.081336 -39.806135 -26.267218 -85.182901 16.390646 -10.999580 44.908219 -3.212895 3.582192 25.051998 33.466409 13.253189 -45.357099 2.893200 -0.262700 0.231500 20.804440 -18.682106 12.089306 -124.032601 -0.071458 -4.558875 54.253932 -42.648191 -6.649937 7.133679 13.849202 34.922646 2.415847 37.287599 2.230700 -7.125000 0.000000 0.000000 -22.744700 50.613100 -3.293700 -3.540122 10.503517 13.040174 120.609356 -3.285466 3.173509 -53.088640 47.456702 -1.249619 -1.480835 1.903401 26.738175 -16.728894 11.417856 -2.697000 7.125000 0.000000 0.000000 8.837000 -19.252600 5.494300 
-6.200889 20.575434 0.220855 68.752116 86.896358 112.826878 39.517925 29.051956 10.223514 -77.278361 -60.751934 -29.283495 19.634263 6.545589 55.074696 8.921502 -0.507449 -65.705900 1.065000 6.560900 18.420800 -52.314105 -32.253014 15.704962 92.238774 57.944269 -17.257758 -22.840473 -4.689759 50.633922 -10.639213 -3.860142 -62.381352 -0.346400 3.781600 -10.463000 9.868844 8.519283 2.281257 -40.812969 -26.755968 -84.613503 16.853815 -11.036301 44.511912 -2.530440 3.275211 24.532908 32.312029 12.447476 -44.206236 2.782300 -0.333400 0.327200 20.966268 -18.658426 12.188277 -124.038051 0.124187 -4.436449 54.374458 -42.754801 -6.690952 6.956162 13.990379 34.332254 2.218200 37.281434 2.184900 -7.125000 0.000000 0.000000 -22.835000 50.567700 -3.281600 -3.544433 10.577304 13.091457 120.646430 -3.433246 3.252034 -53.120837 47.583917 -1.306046 -1.528678 1.734207 26.454081 -16.697049 11.023205 -2.640300 7.125000 0.000000 0.000000 8.840200 -19.481200 5.450700 
-6.199155 20.574680 0.213694 62.318571 87.095910 106.348931 39.590752 29.247303 10.386490 -77.113531 -60.798824 -29.343962 19.551244 6.505907 55.228587 8.754522 -0.975886 -65.914752 1.035600 6.472600 18.162100 -52.275426 -32.108756 15.514213 92.579047 57.726964 -17.029712 -22.841811 -4.633463 50.476094 -10.628013 -3.631943 -62.423562 -0.326100 3.670600 -10.151700 9.618876 8.882843 2.315705 -39.943236 -26.117272 -85.001983 15.948637 -10.556196 44.924989 -4.093826 3.778463 25.284591 35.789976 13.967762 -44.993027 3.040100 -0.323400 0.190400 20.911819 -18.546760 12.178242 -123.799096 0.289512 -4.511176 54.484610 -42.730076 -6.725267 6.893055 14.089182 33.961954 2.211428 37.342781 2.191900 -7.125000 0.000000 0.000000 -22.819000 50.572200 -3.281600 -3.140475 10.847595 13.000318 120.667326 -3.354509 3.229134 -53.281857 47.271040 -1.330293 -1.576774 1.703562 26.225207 -16.767338 10.912425 -2.631400 7.125000 0.000000 0.000000 8.811100 -19.546500 5.419300 
-6.196216 20.574906 0.208191 52.681292 87.267096 96.674466 39.804182 29.536881 10.649349 -77.097159 -60.783923 -29.300907 19.490865 6.452540 55.302998 8.621745 -1.354477 -66.085242 0.984100 6.314300 17.699100 -52.145678 -31.850653 15.205891 92.862891 57.546721 -16.846653 -22.855021 -4.575980 50.343693 -10.652597 -3.527789 -62.446516 -0.340800 3.751200 -10.377800 9.331476 9.126480 2.315944 -38.686131 -25.381813 -85.669289 15.063796 -10.142479 45.437531 -5.494025 4.216790 25.887453 38.427780 15.186708 -45.655980 3.254200 -0.311200 0.136800 20.703205 -18.415897 12.131755 -123.769794 0.403190 -4.985916 54.560601 -42.669766 -6.702898 6.911301 13.968900 33.938102 2.567214 37.073031 2.265600 -7.125000 0.000000 0.000000 -22.479400 50.417500 -3.139700 -2.879187 11.156394 12.928358 120.705438 -3.206659 3.004430 -53.468654 46.957654 -1.251537 -1.431062 1.804676 26.485519 -16.465105 11.172307 -2.615100 7.125000 0.000000 0.000000 8.961700 -19.460600 5.531700 
